# xmcd
#
# Track frame offsets:
#	150
#	12889
#	31439
#	48953
#	60203
#	74117
#	85465
#	101726
#	119258
#	135812
#	148149
#	158544
#	170007
#	182460
#
# Disc length: 2617 seconds
#
# Revision: 1
# Processed by: cddbd v1.5.2PL0 Copyright (c) Steve Scherf et al.
# Submitted via: audiograbber 1.83.01
#
DISCID=b70a370e
DTITLE=Lance Gooda - Sons Of Sons
DYEAR=1900
DGENRE=
TTITLE0=Two Pina Coladas
TTITLE1=Fields Of Athenrie
TTITLE2=Working Man
TTITLE3=Sons Of Sons
TTITLE4=I Just Want To Dance
TTITLE5=Why Me Lord
TTITLE6=Good Hearted Woman
TTITLE7=Clean Shirt
TTITLE8=Today I Started Loving You Again
TTITLE9=I'm Just Me
TTITLE10=Seven Spanish Angles
TTITLE11=Lazy Day
TTITLE12=Waltzing Matilda
TTITLE13=The Gambler
EXTD=
EXTT0=
EXTT1=
EXTT2=
EXTT3=
EXTT4=
EXTT5=
EXTT6=
EXTT7=
EXTT8=
EXTT9=
EXTT10=
EXTT11=
EXTT12=
EXTT13=
PLAYORDER=
